<?xml version="1.0" encoding="UTF-8"?>
<svg width="18" height="18" viewBox="0 0 18 18" fill="none" xmlns="http://www.w3.org/2000/svg">
  <path
    fill={props.fill ?? 'currentColor'}
    d="M4.52 1.804a1 1 0 0 1 1.96 0l.24 1.192a1 1 0 0 0 .783.785l1.192.238a1 1 0 0 1 0 1.962l-1.192.238a1 1 0 0 0-.785.785L6.48 8.196a1 1 0 0 1-1.962 0L4.28 7.004a1 1 0 0 0-.785-.785L2.303 5.98a1 1 0 0 1 0-1.962l1.192-.238a1 1 0 0 0 .785-.785l.238-1.192h.001Zm9.03 3.88a1 1 0 0 1 1.898 0l.683 2.05a1 1 0 0 0 .633.634l2.051.683a1 1 0 0 1 0 1.898l-2.05.684a1 1 0 0 0-.634.632l-.683 2.05a1 1 0 0 1-1.898 0l-.683-2.05a1.002 1.002 0 0 0-.633-.633l-2.05-.683a1 1 0 0 1 0-1.898l2.05-.683a1 1 0 0 0 .633-.633l.683-2.051Zm-7 8a1 1 0 0 1 1.898 0l.184.55a.999.999 0 0 0 .632.634l.551.183a1 1 0 0 1 0 1.898l-.55.183a1.001 1.001 0 0 0-.634.633l-.183.55a1 1 0 0 1-1.898 0l-.184-.55a1 1 0 0 0-.632-.633l-.55-.183a1 1 0 0 1 0-1.898l.55-.184a1 1 0 0 0 .633-.632l.183-.551Z"
  />
</svg>